<svg width="623" height="98" viewBox="0 0 623 98" fill="none" xmlns="http://www.w3.org/2000/svg">
<path d="M51.516 0.561584C21.3552 0.561584 0.964844 20.6688 0.964844 48.9888C0.964844 77.3088 21.3552 97.416 51.516 97.416C64.5433 97.416 71.9065 95.5752 79.4113 91.1856V63.2904H78.2785C72.7561 70.512 63.8353 74.4768 52.7904 74.4768C37.2144 74.4768 27.0192 64.4232 27.0192 48.9888C27.0192 33.5544 37.2144 23.5008 52.7904 23.5008C63.8353 23.5008 72.7561 27.4656 78.2785 34.6872H79.4113V6.79198C71.9065 2.40239 64.5433 0.561584 51.516 0.561584Z" fill="#8001FF"/>
<path d="M181.498 96V1.97758H156.577V55.644H156.293L129.106 1.97758H95.1222V96H120.044V33.9792H120.327L151.762 96H181.498Z" fill="#8001FF"/>
<path d="M253.458 96L288.858 1.97758H261.954L241.138 62.016H240.855L220.04 1.97758H192.428L227.828 96H253.458Z" fill="#8001FF"/>
<path d="M346.082 24.9168H371.994V1.97758H294.114V24.9168H320.31V96H346.082V24.9168Z" fill="#8001FF"/>
<path d="M385.091 70.9029C377.61 70.9029 372 76.4951 372 83.9515C372 91.4078 377.61 97 385.091 97C392.572 97 398.182 91.4078 398.182 83.9515C398.182 76.4951 392.572 70.9029 385.091 70.9029Z" fill="#0CE9DB"/>
<path d="M411.679 95.6685H433.053V2.46463H411.679V95.6685Z" fill="#0CE9DB"/>
<path d="M458.11 1C450.629 1 445.42 6.19278 445.42 13.6491C445.42 21.1054 450.629 26.2982 458.11 26.2982C465.591 26.2982 470.801 21.1054 470.801 13.6491C470.801 6.19278 465.591 1 458.11 1ZM447.423 95.6685H468.797V32.8225H447.423V95.6685Z" fill="#0CE9DB"/>
<path d="M519.769 31.491C511.621 31.491 505.476 34.6865 501.869 40.6782H501.602L500.8 32.8225H483.167V95.6685H504.541V61.7157C504.541 54.2594 507.747 50.3981 513.892 50.3981C519.101 50.3981 522.174 53.8599 522.174 60.5173V95.6685H543.547V57.9875C543.547 41.2108 534.731 31.491 519.769 31.491Z" fill="#0CE9DB"/>
<path d="M578.116 71.7018H578.383L595.883 95.6685H623L596.951 63.4466L621.664 32.8225H595.883L578.383 56.7892H578.116V2.46463H556.743V95.6685H578.116V71.7018Z" fill="#0CE9DB"/>
</svg>
